<svg width="27" height="26" viewBox="0 0 27 26" fill="none" xmlns="http://www.w3.org/2000/svg">
<path id="Vector" d="M13.5 0.053894C6.49356 0.053894 0.8125 5.73495 0.8125 12.7414C0.8125 19.7478 6.49356 25.4289 13.5 25.4289C20.5064 25.4289 26.1875 19.7478 26.1875 12.7414C26.1875 5.73495 20.5064 0.053894 13.5 0.053894ZM8.26924 18.1336C8.2126 18.1591 8.14463 18.1336 8.11914 18.0741C8.10781 18.0458 8.10781 18.0118 8.11914 17.9835L10.9144 11.5973L14.6555 15.3384L8.26924 18.1336ZM18.8922 7.51063L16.097 13.8969L12.3559 10.1558L18.7421 7.36053C18.7987 7.33505 18.8667 7.36053 18.8922 7.42001C18.9035 7.44833 18.9035 7.47948 18.8922 7.51063Z" fill="url(#paint0_linear_1_63)"/>
<defs>
<linearGradient id="paint0_linear_1_63" x1="13.5" y1="0.053894" x2="34.0256" y2="13.0428" gradientUnits="userSpaceOnUse">
<stop stop-color="#FF5353"/>
<stop offset="1" stop-color="#E91E1E"/>
</linearGradient>
</defs>
</svg>
