<svg width="27" height="25" viewBox="0 0 27 25" fill="none" xmlns="http://www.w3.org/2000/svg">
<path id="Vector" d="M25.8051 12.5432L14.14 0.886513C14.056 0.802356 13.9562 0.73559 13.8464 0.690035C13.7366 0.644481 13.6189 0.621033 13.5 0.621033C13.3811 0.621033 13.2633 0.644481 13.1535 0.690035C13.0437 0.73559 12.9439 0.802356 12.8599 0.886513L1.19478 12.5432C0.854932 12.883 0.662354 13.3446 0.662354 13.8261C0.662354 14.8258 1.47515 15.6386 2.47485 15.6386H3.70396V23.9562C3.70396 24.4575 4.10894 24.8625 4.61021 24.8625H11.6875V18.5187H14.8593V24.8625H22.3897C22.891 24.8625 23.2959 24.4575 23.2959 23.9562V15.6386H24.5251C25.0065 15.6386 25.4681 15.4488 25.808 15.1061C26.5131 14.3981 26.5131 13.2512 25.8051 12.5432Z" fill="url(#paint0_linear_1_60)"/>
<defs>
<linearGradient id="paint0_linear_1_60" x1="13.4994" y1="0.621033" x2="33.5686" y2="14.0717" gradientUnits="userSpaceOnUse">
<stop stop-color="#FF5353"/>
<stop offset="1" stop-color="#E91E1E"/>
</linearGradient>
</defs>
</svg>
