<svg width="24" height="26" viewBox="0 0 24 26" fill="none" xmlns="http://www.w3.org/2000/svg">
<path id="Vector" d="M5.25008 20.6838C7.91566 20.6838 10.0834 18.516 10.0834 15.8504V3.59189L20.9584 7.54556V16.5235C20.2272 16.0878 19.3929 15.8555 18.5417 15.8504C15.8762 15.8504 13.7084 18.0182 13.7084 20.6838C13.7084 23.3493 15.8762 25.5171 18.5417 25.5171C21.2073 25.5171 23.3751 23.3493 23.3751 20.6838V6.69973C23.3753 6.45181 23.299 6.20987 23.1567 6.00684C23.0145 5.80381 22.8131 5.64956 22.58 5.5651L9.28833 0.731768C9.10586 0.665064 8.90999 0.643386 8.71736 0.668576C8.52472 0.693766 8.34101 0.765079 8.18183 0.876458C8.02265 0.987836 7.8927 1.13599 7.80303 1.30833C7.71336 1.48068 7.66661 1.67212 7.66675 1.86639V11.6901C6.93555 11.2545 6.10121 11.0221 5.25008 11.0171C2.5845 11.0171 0.416748 13.1848 0.416748 15.8504C0.416748 18.516 2.5845 20.6838 5.25008 20.6838Z" fill="url(#paint0_linear_1_62)"/>
<defs>
<linearGradient id="paint0_linear_1_62" x1="11.8959" y1="0.658386" x2="31.2818" y2="11.9882" gradientUnits="userSpaceOnUse">
<stop stop-color="#FF5353"/>
<stop offset="1" stop-color="#E91E1E"/>
</linearGradient>
</defs>
</svg>
