<svg width="25" height="21" viewBox="0 0 25 21" fill="none" xmlns="http://www.w3.org/2000/svg">
<g id="Playlists">
<path id="Vector" d="M13.7084 15.9291C13.7084 18.266 15.6091 20.1667 17.946 20.1667C20.283 20.1667 22.1837 18.266 22.1837 15.9291C22.1837 15.7152 22.151 15.5098 22.1196 15.3044H22.1667V3.25004H24.5834V0.833374H20.9584C20.6379 0.833374 20.3306 0.96068 20.104 1.18729C19.8774 1.41389 19.7501 1.72124 19.7501 2.04171V12.1107C19.1875 11.8385 18.5711 11.6956 17.946 11.6927C16.8227 11.6936 15.7455 12.1402 14.9511 12.9345C14.1566 13.7287 13.7097 14.8057 13.7084 15.9291ZM0.416748 2.04171H17.3334V4.45837H0.416748V2.04171Z" fill="url(#paint0_linear_1_71)"/>
<path id="Vector_2" d="M0.416748 6.875H17.3334V9.29167H0.416748V6.875ZM0.416748 11.7083H11.2917V14.125H0.416748V11.7083ZM0.416748 16.5417H11.2917V18.9583H0.416748V16.5417Z" fill="url(#paint1_linear_1_71)"/>
</g>
<defs>
<linearGradient id="paint0_linear_1_71" x1="12.5001" y1="0.833374" x2="29.3397" y2="14.1538" gradientUnits="userSpaceOnUse">
<stop stop-color="#FF5353"/>
<stop offset="1" stop-color="#E91E1E"/>
</linearGradient>
<linearGradient id="paint1_linear_1_71" x1="8.87508" y1="6.875" x2="19.6116" y2="16.3869" gradientUnits="userSpaceOnUse">
<stop stop-color="#FF5353"/>
<stop offset="1" stop-color="#E91E1E"/>
</linearGradient>
</defs>
</svg>
