<svg width="29" height="29" viewBox="0 0 29 29" fill="none" xmlns="http://www.w3.org/2000/svg">
<g id="Play">
<path id="Vector" d="M6.34375 25.375C6.1034 25.375 5.87289 25.2795 5.70293 25.1096C5.53298 24.9396 5.4375 24.7091 5.4375 24.4687V4.53125C5.43753 4.37377 5.47859 4.21901 5.55664 4.08224C5.63469 3.94546 5.74704 3.83138 5.88261 3.75125C6.01818 3.67112 6.17228 3.62769 6.32974 3.62526C6.48721 3.62283 6.64258 3.66147 6.78056 3.73737L24.9056 13.7061C25.0477 13.7844 25.1661 13.8993 25.2487 14.0389C25.3312 14.1786 25.3747 14.3378 25.3747 14.5C25.3747 14.6622 25.3312 14.8214 25.2487 14.9611C25.1661 15.1007 25.0477 15.2156 24.9056 15.2939L6.78056 25.2626C6.64676 25.3363 6.4965 25.375 6.34375 25.375Z" fill="#F6F6F6"/>
</g>
</svg>
