<svg width="25" height="25" viewBox="0 0 25 25" fill="none" xmlns="http://www.w3.org/2000/svg">
<path id="Vector" d="M12.5001 0.416687C5.82646 0.416687 0.416748 5.8264 0.416748 12.5C0.416748 19.1736 5.82646 24.5834 12.5001 24.5834C19.1737 24.5834 24.5834 19.1736 24.5834 12.5C24.5834 5.8264 19.1737 0.416687 12.5001 0.416687ZM11.2917 8.57294V16.4271C11.2917 16.6675 11.1963 16.898 11.0263 17.0679C10.8564 17.2379 10.6258 17.3334 10.3855 17.3334C10.1451 17.3334 9.91464 17.2379 9.74468 17.0679C9.57473 16.898 9.47925 16.6675 9.47925 16.4271V8.57294C9.47925 8.33258 9.57473 8.10208 9.74468 7.93212C9.91464 7.76217 10.1451 7.66669 10.3855 7.66669C10.6258 7.66669 10.8564 7.76217 11.0263 7.93212C11.1963 8.10208 11.2917 8.33258 11.2917 8.57294ZM18.5417 8.57294V16.4271C18.5417 16.6675 18.4463 16.898 18.2763 17.0679C18.1064 17.2379 17.8758 17.3334 17.6355 17.3334C17.3951 17.3334 17.1646 17.2379 16.9947 17.0679C16.8247 16.898 16.7292 16.6675 16.7292 16.4271V8.57294C16.7292 8.33258 16.8247 8.10208 16.9947 7.93212C17.1646 7.76217 17.3951 7.66669 17.6355 7.66669C17.8758 7.66669 18.1064 7.76217 18.2763 7.93212C18.4463 8.10208 18.5417 8.33258 18.5417 8.57294ZM14.9167 10.3854V14.6146C14.9167 14.855 14.8213 15.0855 14.6513 15.2554C14.4814 15.4254 14.2508 15.5209 14.0105 15.5209C13.7701 15.5209 13.5396 15.4254 13.3697 15.2554C13.1997 15.0855 13.1042 14.855 13.1042 14.6146V10.3854C13.1042 10.1451 13.1997 9.91458 13.3697 9.74462C13.5396 9.57467 13.7701 9.47919 14.0105 9.47919C14.2508 9.47919 14.4814 9.57467 14.6513 9.74462C14.8213 9.91458 14.9167 10.1451 14.9167 10.3854ZM7.66675 10.9896V14.0104C7.66675 14.2508 7.57127 14.4813 7.40131 14.6513C7.23136 14.8212 7.00085 14.9167 6.7605 14.9167C6.52015 14.9167 6.28964 14.8212 6.11968 14.6513C5.94973 14.4813 5.85425 14.2508 5.85425 14.0104V10.9896C5.85425 10.7493 5.94973 10.5187 6.11968 10.3488C6.28964 10.1788 6.52015 10.0834 6.7605 10.0834C7.00085 10.0834 7.23136 10.1788 7.40131 10.3488C7.57127 10.5187 7.66675 10.7493 7.66675 10.9896Z" fill="url(#paint0_linear_1_74)"/>
<defs>
<linearGradient id="paint0_linear_1_74" x1="12.5001" y1="0.416687" x2="32.0483" y2="12.787" gradientUnits="userSpaceOnUse">
<stop stop-color="#FF5353"/>
<stop offset="1" stop-color="#E91E1E"/>
</linearGradient>
</defs>
</svg>
