<svg width="20" height="20" viewBox="0 0 20 20" fill="none" xmlns="http://www.w3.org/2000/svg">
<g id="Repeat">
<g id="Group">
<path id="Vector" d="M12.26 1.90751L12.1875 1.84251C12.0272 1.71598 11.8261 1.65269 11.6222 1.66468C11.4184 1.67666 11.226 1.76307 11.0817 1.90751L11.0167 1.98001C10.8902 2.14015 10.8269 2.34117 10.8389 2.54488C10.8509 2.74859 10.9373 2.94081 11.0817 3.08501L12.1642 4.16585H7.49916L7.29916 4.16918C5.78837 4.2206 4.35659 4.85675 3.30579 5.94346C2.25498 7.03018 1.66729 8.48251 1.66666 9.99418C1.66666 11.1983 2.03166 12.3175 2.65749 13.2433C2.78601 13.423 2.98064 13.5443 3.19858 13.5805C3.41651 13.6167 3.63989 13.5648 3.81957 13.4363C3.99926 13.3077 4.12053 13.1131 4.15671 12.8952C4.19289 12.6772 4.14101 12.4539 4.01249 12.2742L3.89999 12.0925C3.53114 11.4596 3.33578 10.7405 3.33366 10.0079C3.33153 9.27537 3.5227 8.5552 3.88787 7.92012C4.25304 7.28504 4.77929 6.75754 5.41349 6.39086C6.0477 6.02418 6.76741 5.8313 7.49999 5.83168H12.1625L11.0817 6.91251L11.0167 6.98501C10.8813 7.15142 10.8155 7.36362 10.8328 7.5774C10.8501 7.79118 10.9492 7.99003 11.1095 8.13251C11.2698 8.27499 11.479 8.3501 11.6933 8.34218C11.9076 8.33426 12.1106 8.24393 12.26 8.09001L14.765 5.58751L14.8292 5.51501C14.9556 5.35487 15.0189 5.15386 15.0069 4.95015C14.9949 4.74643 14.9085 4.55422 14.7642 4.41001L12.26 1.90751ZM17.3225 6.71668C17.2158 6.57973 17.0689 6.47956 16.9024 6.43022C16.736 6.38087 16.5582 6.3848 16.3941 6.44147C16.23 6.49813 16.0877 6.60469 15.9872 6.74624C15.8866 6.88778 15.8328 7.05722 15.8333 7.23085C15.8333 7.40501 15.8867 7.56585 15.9767 7.69835C16.391 8.32601 16.6276 9.05417 16.6614 9.80551C16.6952 10.5568 16.5249 11.3033 16.1685 11.9656C15.8121 12.6279 15.283 13.1814 14.6374 13.5671C13.9918 13.9529 13.2538 14.1566 12.5017 14.1567H7.84499L8.92333 13.0817L8.99249 13.0017C9.10598 12.8547 9.16713 12.674 9.16622 12.4883C9.16532 12.3026 9.10241 12.1225 8.98749 11.9767L8.92333 11.9033L8.84416 11.8333C8.69697 11.7196 8.51599 11.6583 8.32996 11.6592C8.14394 11.6601 7.96356 11.7232 7.81749 11.8383L7.74416 11.9033L5.23999 14.4058L5.17082 14.485C5.05713 14.6321 4.99586 14.8129 4.99677 14.9988C4.99767 15.1847 5.0607 15.3649 5.17582 15.5108L5.23999 15.5833L7.74416 18.0858L7.82332 18.1558C7.98421 18.2801 8.18498 18.3413 8.38783 18.3278C8.59068 18.3144 8.78162 18.2273 8.92471 18.0829C9.06779 17.9384 9.15315 17.7467 9.16471 17.5437C9.17628 17.3408 9.11325 17.1406 8.98749 16.9808L8.92333 16.9083L7.83666 15.8225H12.5L12.7 15.82C13.7423 15.7842 14.7559 15.4695 15.6352 14.9087C16.5145 14.3479 17.2272 13.5616 17.6992 12.6316C18.1713 11.7016 18.3852 10.6621 18.3188 9.62131C18.2524 8.58053 17.908 7.57661 17.3217 6.71418V6.71668H17.3225Z" fill="#F6F6F6"/>
</g>
</g>
</svg>
