<svg width="27" height="18" viewBox="0 0 27 18" fill="none" xmlns="http://www.w3.org/2000/svg">
<path id="Vector" d="M26.6405 1.58514V8.83514C26.6405 9.19567 26.4973 9.54143 26.2424 9.79637C25.9875 10.0513 25.6417 10.1945 25.2812 10.1945C24.9206 10.1945 24.5749 10.0513 24.3199 9.79637C24.065 9.54143 23.9218 9.19567 23.9218 8.83514V4.8703L15.3691 13.423C15.2428 13.5498 15.0927 13.6503 14.9275 13.7189C14.7622 13.7875 14.5851 13.8229 14.4062 13.8229C14.2273 13.8229 14.0501 13.7875 13.8849 13.7189C13.7196 13.6503 13.5696 13.5498 13.4433 13.423L9.87492 9.85467L2.68156 17.048C2.42504 17.3012 2.07911 17.4432 1.71867 17.4432C1.35823 17.4432 1.0123 17.3012 0.755779 17.048C0.629049 16.9217 0.528496 16.7717 0.459885 16.6064C0.391275 16.4412 0.355957 16.2641 0.355957 16.0851C0.355957 15.9062 0.391275 15.7291 0.459885 15.5638C0.528496 15.3986 0.629049 15.2485 0.755779 15.1223L8.91203 6.966C9.03832 6.83927 9.18839 6.73872 9.35362 6.67011C9.51885 6.6015 9.69601 6.56618 9.87492 6.56618C10.0538 6.56618 10.231 6.6015 10.3962 6.67011C10.5615 6.73872 10.7115 6.83927 10.8378 6.966L14.4062 10.5344L21.996 2.94452H18.0312C17.6706 2.94452 17.3249 2.8013 17.0699 2.54637C16.815 2.29144 16.6718 1.94567 16.6718 1.58514C16.6718 1.22462 16.815 0.878853 17.0699 0.623921C17.3249 0.368988 17.6706 0.225769 18.0312 0.225769H25.2812C25.6417 0.225769 25.9875 0.368988 26.2424 0.623921C26.4973 0.878853 26.6405 1.22462 26.6405 1.58514Z" fill="url(#paint0_linear_1_61)"/>
<defs>
<linearGradient id="paint0_linear_1_61" x1="13.4983" y1="0.225769" x2="28.8997" y2="15.1047" gradientUnits="userSpaceOnUse">
<stop stop-color="#FF5353"/>
<stop offset="1" stop-color="#E91E1E"/>
</linearGradient>
</defs>
</svg>
